<?xml version="1.0" encoding="utf-8"?>
<!-- Generator: Adobe Illustrator 21.0.0, SVG Export Plug-In . SVG Version: 6.00 Build 0)  -->
<svg version="1.1" id="Calque_2" xmlns="http://www.w3.org/2000/svg" xmlns:xlink="http://www.w3.org/1999/xlink" x="0px" y="0px"
	 viewBox="0 0 283.5 283.5" style="enable-background:new 0 0 283.5 283.5;" xml:space="preserve">
<style type="text/css">
	.st0{fill:#FFFFFF;}
	.st1{fill:hsl(209, 54%, 12%);}
</style>
<path class="st0" d="M268,15.5v252.6H15.5V15.5H268 M277.8,0H5.7C2.5,0,0,2.5,0,5.7v272.2c0,3.1,2.5,5.7,5.7,5.7h272.2
	c3.1,0,5.7-2.5,5.7-5.7V5.7C283.5,2.5,281,0,277.8,0L277.8,0z"/>
<path class="st1" d="M268,15.5v252.6H15.5V15.5H268"/>
<path class="st0" d="M57.3,105.4c0-5.7,0.7-10.8,2.1-15.6c1.4-4.7,3.4-8.7,6.1-12.1s5.8-5.9,9.5-7.8c3.7-1.9,7.9-2.8,12.7-2.8
	c4.4,0,8.2,0.7,11.3,2.2c3.1,1.5,5.8,3.6,8,6.3l0.8-7.1h17.6V141c0,5.1-0.8,9.7-2.6,13.6c-1.7,4-4.2,7.3-7.2,10
	c-3.1,2.7-6.9,4.8-11.2,6.2c-4.3,1.4-9.2,2.1-14.4,2.1c-2.2,0-4.7-0.2-7.2-0.7c-2.6-0.5-5.1-1.2-7.7-2.1c-2.6-0.9-4.9-2.2-7.2-3.7
	c-2.2-1.5-4.2-3.3-5.8-5.4l8.6-11.8c2.4,2.8,5.2,4.9,8.3,6.3c3.1,1.5,6.4,2.2,10,2.2c5.4,0,9.7-1.4,12.7-4.3c3-2.9,4.5-7,4.5-12.3
	v-4.3c-2.2,2.4-4.9,4.4-7.9,5.8c-3,1.4-6.5,2.1-10.5,2.1c-4.7,0-8.8-0.9-12.6-2.9c-3.7-1.9-6.9-4.5-9.5-7.9c-2.7-3.4-4.7-7.3-6.1-12
	c-1.4-4.7-2.1-9.7-2.1-15.1v-1.4L57.3,105.4L57.3,105.4z M76.7,106.9c0,3.1,0.3,6.1,0.9,8.7c0.6,2.7,1.6,5,2.9,7.1
	c1.3,2,2.9,3.6,4.9,4.8c2,1.2,4.3,1.7,7.1,1.7c3.4,0,6.2-0.7,8.4-2s4-3.1,5.2-5.4V90.1c-1.3-2.3-3-4.2-5.2-5.5
	c-2.2-1.3-4.9-1.9-8.3-1.9c-2.7,0-5.1,0.6-7.1,1.7c-2,1.2-3.6,2.8-5,4.9c-1.3,2.1-2.3,4.4-2.9,7.2c-0.7,2.8-0.9,5.7-0.9,8.8
	C76.7,105.5,76.7,106.9,76.7,106.9z"/>
<path class="st0" d="M208.1,158.5h-63.2v-15h63.2V158.5z">
	<animate attributeType="XML" attributeName="visibility" from="visible" to="hidden" dur="2s" repeatCount="indefinite"/>
</path>
</svg>
