<?xml version="1.0" encoding="utf-8"?>
<svg version="1.1" id="Calque_1" xmlns="http://www.w3.org/2000/svg" xmlns:xlink="http://www.w3.org/1999/xlink" x="0px" y="0px"
	 viewBox="0 0 850.4 283.5" style="enable-background:new 0 0 850.4 283.5;" xml:space="preserve">
<style type="text/css">
	.st0{fill:hsl(210, 100%, 5%);}
</style>
<g>
	<path class="st0" d="M728.9,203.6l9.7,8.8l6-5.6l-50.1-60.1l-17.3,12.6l-2.4-9.7l-13.9,3.8l2.4,16.1l-34,24.8l6,6.3l9.6-7.2
		l-13.1,66.4c-112.4-12-242.2-21.5-320-8.6c-55.1,9.1-107.9,15.9-152.6,20.9c-0.4-1.4-0.7-2.7-1.1-4.1c0-0.1,0-0.1,0-0.2
		c0-0.3,0.1-0.6,0.1-1c1.2-7.4,3.2-14.7,6.1-21.9c1.5-3.6,3.1-7.2,5.1-10.8c0.9-1.8,2-3.5,3.1-5.3c1.2-1.7,2.3-3.5,3.5-5.2
		c3.2-4.5,7-8.9,11.3-13.2c1.3,2.2,3.6,4.1,7.1,5.2c14.1,4.5,22.6-6.5,22.6-6.5s11.9,3.5,18.4-3.5c6.5-7-5.8-22.4-12.2-22.5
		c-5-0.1-15.7,12.5-15.7,12.5s-4.7-4-13.2-2.5c-5.7,1-10.2,9-8,15.4c-5.6,4.3-10.7,8.9-15.1,13.7c-1.6,1.7-3,3.4-4.5,5.1
		c-1.4,1.7-2.9,3.5-4.1,5.2c-2.7,3.5-5,7.1-7.2,10.7c-0.7,1.1-1.3,2.2-1.9,3.4c-2.3-12.9-3.6-25.9-4-38.9c-0.2-6.7,0-13.4,0.4-20.1
		c0.4-5.9,1.1-11.9,2.1-17.8c7.1,3.1,16,5.7,26.8,6.4c33.6,2.5,28.9-21,28.9-21s10.3-3.1,14.5-17.2c4.2-14.1-4.4-22.2-4.4-22.2
		s-6.5-17.4-36.8-29c-30.3-11.6-40.9,13.8-40.9,13.8s-18.1-15.7-52-11.2c-48.9,6.6-42,35.3-42,35.3s-28.3-11.9-36.2,7.8
		c-7.9,19.7,24.5,35.6,24.5,35.6s-20.6,21.2,10.7,24.4c31.3,3.2,26.7-14,26.7-14s17.2,7.1,32.1,7.3c5.5,10.6,9.5,21.5,12.4,32.4
		c2.9,11.3,4.6,22.6,5.5,34c0.4,5.7,0.6,11.4,0.7,17.1l0.1,6.3c-2.9,0.3-5.7,0.6-8.5,0.8c0.1-1.8,0.2-3.7,0.5-5.5
		c0.3-1.9,0.8-3.7,1.5-5.5l-1.1-0.6c-1.2,1.6-2.2,3.4-3.1,5.3c-0.8,1.9-1.5,3.8-2.1,5.7c-0.1,0.3-0.2,0.7-0.3,1.1
		c-0.3,0-0.5,0-0.8,0.1c-0.9-3.1-2-6.1-3.2-9.1c-1.3-3.1-2.9-6.1-4.7-9c-1.8-2.9-3.9-5.5-6.3-7.9l-1,0.8c1.9,2.7,3.4,5.5,4.7,8.4
		c1.2,3,2.2,6,3,9.1c0.6,2.6,1.1,5.3,1.5,7.9c-2.4-1.4-5.2-2.2-8.3-2.1c-4.9,0.3-9.5,2.2-13.2,4.3c-32.3,2.8-51.6,3.9-51.6,3.9
		s16.9,0,45.8,0c0,0,0,0,0,0h27.9h6.3h4.5c0,0,0,0,0,0c2.9,0,5.8,0,8.8,0c0,0,0,0,0,0h11.6l0-0.1c0.1,0,0.1,0,0.2,0c0,0,0,0,0,0.1
		h27.7c0,0,0,0,0-0.1c6.2,0,12.5,0,19,0c0,0,0,0,0,0.1h11.5c0,0,0-0.1-0.1-0.1c4.9,0,9.9,0,14.9,0c0,0-0.1,0.1-0.1,0.1h18.9
		c-0.1,0-0.1-0.1-0.2-0.1c224.2-0.1,565.9-0.2,613,0c-16.9-0.7-58.7-6.2-112.7-12.8L728.9,203.6z M110,185.6
		c4.7-0.7,8.7-2.4,11.5-5.6c12.2-14.2,8.6-25.7,8.6-25.7s4.7,6,14.5,11.7c-0.1,0.2-0.2,0.5-0.3,0.7c-2.3,6.7-4.3,13.5-5.9,20.3
		c-1.6,6.8-2.8,13.6-3.8,20.4c-1.2,8.9-2,17.9-2.3,26.8c-1.7-5.7-3.6-11.4-5.9-17.1C122.2,206.4,116.8,195.8,110,185.6z"/>
	<path class="st0" d="M839.3,283.4c1.5,0.1,2.9,0.1,4,0.1C846.2,283.4,844.7,283.4,839.3,283.4z"/>
	<path class="st0" d="M391.8,60.8c13.7,0.7,31,4.8,31-3c-0.1-15.6-44.7-9-62-5.3S378.1,60.1,391.8,60.8z"/>
	<path class="st0" d="M426.8,45.4c30.4,9.7,109.1,29,111.7-1.8c1.3-15.4-32.4-0.7-54.9-10.3C457.3,22.1,396.3,35.7,426.8,45.4z"/>
	<path class="st0" d="M664.9,141.7c9.9-3.1,3-10.7-0.4-13.4c-3.4-2.7-3.8,5-3.4,7.8C661.5,139,659.9,143.3,664.9,141.7z"/>
	<path class="st0" d="M658.1,114.8c4.6-6.6-3.1-7.8-6.4-7.8c-3.3,0,0,4.8,1.5,6.3C654.7,114.7,655.8,118,658.1,114.8z"/>
</g>
</svg>
