<?xml version="1.0" encoding="utf-8"?>
<!-- Generator: Adobe Illustrator 20.1.0, SVG Export Plug-In . SVG Version: 6.00 Build 0)  -->
<svg version="1.1" id="Calque_3" xmlns="http://www.w3.org/2000/svg" xmlns:xlink="http://www.w3.org/1999/xlink" x="0px" y="0px"
	 viewBox="0 0 283.5 283.5" style="enable-background:new 0 0 283.5 283.5;" xml:space="preserve">
<style type="text/css">
	.st0{fill:#FFFFFF;}
</style>
<g>
	<path class="st0" d="M131.6,59.1c-1-0.7-2.1-1.2-3.3-1.5c-1.2-0.4-2.6-0.6-4.1-0.6c-2.5,0-4.7,0.5-6.4,1.5c-1.8,1-3.3,2.4-4.4,4.2
		s-2,3.8-2.5,6.1s-0.8,4.7-0.8,7.3v1.2l0,0c0,2.5,0.3,5,0.8,7.2c0.5,2.3,1.4,4.3,2.5,6s2.6,3.1,4.4,4.1s3.9,1.5,6.4,1.5
		c1.5,0,2.9-0.2,4.2-0.6c1.2-0.4,2.3-0.9,3.3-1.6s1.9-1.5,2.6-2.4c0.8-0.9,1.4-2,2-3.1v-24c-0.6-1.1-1.3-2.1-2-3
		C133.5,60.5,132.6,59.7,131.6,59.1z"/>
	<path class="st0" d="M275.3,0H8.2C3.7,0,0,3.7,0,8.2v267.1c0,4.5,3.7,8.2,8.2,8.2h267.1c4.5,0,8.2-3.7,8.2-8.2V8.2
		C283.5,3.7,279.8,0,275.3,0z M68,102.9h-6.8L39.8,50.6H49L63.9,90l0.8,3.2l0.9-3.2l14.6-39.4h9.1L68,102.9z M145.1,101.8
		c0,3.4-0.5,6.5-1.6,9.2s-2.6,4.9-4.5,6.8s-4.3,3.3-7,4.3s-5.7,1.4-9,1.4c-1.4,0-2.9-0.2-4.6-0.5s-3.5-0.8-5.3-1.5s-3.5-1.6-5.2-2.8
		c-1.7-1.2-3.1-2.6-4.3-4.3l4.6-5.4c1.1,1.3,2.2,2.4,3.4,3.4s2.3,1.6,3.5,2.2c1.2,0.5,2.4,0.9,3.6,1.2c1.2,0.2,2.4,0.4,3.6,0.4
		c2.1,0,4-0.3,5.7-0.9c1.7-0.6,3.2-1.5,4.4-2.7s2.1-2.6,2.8-4.4c0.6-1.7,1-3.7,1-6v-4.5c-1.7,2-3.8,3.5-6.2,4.6
		c-2.4,1-5.1,1.6-8.2,1.6c-3.2,0-6.1-0.7-8.6-2c-2.6-1.4-4.8-3.2-6.5-5.6c-1.8-2.4-3.2-5.2-4.1-8.4c-1-3.2-1.4-6.7-1.4-10.5v-1.1
		h-0.1c0-3.9,0.5-7.5,1.4-10.7c0.9-3.3,2.3-6.1,4.1-8.4c1.8-2.4,4-4.2,6.6-5.5s5.5-2,8.7-2s6,0.6,8.5,1.7c2.4,1.1,4.5,2.8,6.2,5
		l0.4-5.7h8.1L145.1,101.8L145.1,101.8z M205.5,110.2h-44.3v-7.3h44.3V110.2z"/>
</g>
</svg>
