<?xml version="1.0" encoding="utf-8"?>
<!-- Generator: Adobe Illustrator 20.1.0, SVG Export Plug-In . SVG Version: 6.00 Build 0)  -->
<svg version="1.1" id="Calque_2" xmlns="http://www.w3.org/2000/svg" xmlns:xlink="http://www.w3.org/1999/xlink" x="0px" y="0px"
	 viewBox="0 0 283.5 283.5" style="enable-background:new 0 0 283.5 283.5;" xml:space="preserve">
<style type="text/css">
	.st0{fill:#010202;}
</style>
<path class="st0" d="M277.8,5.7v272.2H5.7V5.7H277.8 M277.8,0H5.7C2.5,0,0,2.5,0,5.7v272.2c0,3.1,2.5,5.7,5.7,5.7h272.2
	c3.1,0,5.7-2.5,5.7-5.7V5.7C283.5,2.5,281,0,277.8,0L277.8,0z"/>
<path d="M221.3,149H167v-12.9h54.3V149z">
	<animate attributeType="XML" attributeName="visibility" from="visible" to="hidden" dur="2s" repeatCount="indefinite"/>
</path>
<polygon points="44.7,135.4 34.7,125.4 59.5,102.1 34.7,78.7 44.7,68.7 76.5,102.1 "/>
<path d="M124.7,95v14.2h12.8v4.2v2.8c0,0.6,0,1.1-0.1,1.7c-0.2,1.1-0.5,2.1-1,3.1c-1,1.9-2.8,3.5-4.8,4.4c-0.5,0.2-1,0.4-1.5,0.5
	c-0.3,0.1-0.5,0.1-0.8,0.2c-0.1,0-0.3,0-0.4,0.1l-0.2,0l-0.1,0l-0.1,0l-0.1,0l-0.2,0l-0.4,0l-0.2,0l-0.1,0h-1.3h-2.8h-5.6h-1.4
	c-0.3,0-0.6,0-0.8,0c-0.5,0-1.1-0.1-1.6-0.3c-2.1-0.5-4.1-1.8-5.4-3.5c-1.4-1.7-2.1-3.9-2.1-6.1v-11.3V82.3v-2.8
	c0-0.7,0-1.1,0.1-1.7c0.2-1.1,0.5-2.1,1-3.1c1-1.9,2.7-3.5,4.7-4.4c0.5-0.2,1-0.4,1.5-0.5c0.3-0.1,0.5-0.1,0.8-0.2
	c0.1,0,0.3,0,0.4-0.1c0.1,0,0.3,0,0.3,0l0.1,0c0,0,0.1,0,0.2,0l0.7,0l1.2,0h2.8h5.6h1.4c0.3,0,0.6,0,0.9,0c0.5,0,1.1,0.1,1.6,0.3
	c2.1,0.5,4.1,1.8,5.4,3.5c1.4,1.7,2.1,3.9,2.1,6.1h14.2c0-5.3-1.8-10.7-5.1-14.8c-3.3-4.2-8-7.3-13.2-8.5c-1.3-0.3-2.6-0.5-3.9-0.6
	c-0.6-0.1-1.4-0.1-2-0.1h-1.4h-5.6h-2.8l-1.6,0l-0.7,0l-0.5,0l-0.6,0c-0.4,0-0.7,0.1-1.1,0.1c-0.3,0-0.7,0.1-1,0.1
	c-0.7,0.1-1.3,0.3-2,0.4c-1.3,0.3-2.6,0.8-3.8,1.3c-4.9,2.2-9,6-11.5,10.7c-1.3,2.4-2.1,4.9-2.5,7.6c-0.2,1.3-0.3,2.7-0.3,3.9v2.8
	v22.6v11.3c0,5.3,1.8,10.7,5.1,14.8c3.3,4.2,7.9,7.3,13.1,8.6c1.3,0.3,2.6,0.5,3.9,0.6c0.7,0.1,1.3,0.1,2,0.1h1.4h5.6h2.8h1.4l0.9,0
	l0.2,0l0.3,0l0.6,0l0.6,0l0.5-0.1c0.3,0,0.7-0.1,1-0.1c0.7-0.1,1.3-0.2,2-0.4c1.3-0.3,2.6-0.8,3.8-1.3c4.9-2.1,9-5.9,11.5-10.6
	c1.3-2.3,2.1-4.9,2.6-7.5c0.2-1.3,0.3-2.7,0.3-3.9v-2.8v-11.3V95h-7.1H124.7z"/>
</svg>
