<?xml version="1.0" encoding="utf-8"?>
<!-- Generator: Adobe Illustrator 20.1.0, SVG Export Plug-In . SVG Version: 6.00 Build 0)  -->
<svg version="1.1" id="Calque_2" xmlns="http://www.w3.org/2000/svg" xmlns:xlink="http://www.w3.org/1999/xlink" x="0px" y="0px"
	 viewBox="0 0 283.5 283.5" style="enable-background:new 0 0 283.5 283.5;" xml:space="preserve">
<path d="M277.8,0H5.7C2.5,0,0,2.5,0,5.7v272.2c0,3.1,2.5,5.7,5.7,5.7h272.2c3.1,0,5.7-2.5,5.7-5.7V5.7C283.5,2.5,281,0,277.8,0z
	 M44.7,135.4l-10-10l24.9-23.3L34.7,78.7l10-10l31.8,33.4L44.7,135.4z M108.4,122.3c1.3,1.7,3.3,3,5.4,3.5c0.5,0.1,1.1,0.2,1.6,0.3
	c0.3,0,0.5,0,0.8,0h1.4h5.6h2.8h1.3l0.1,0l0.2,0l0.4,0l0.2,0l0.1,0l0.1,0l0.1,0l0.2,0c0.1,0,0.3,0,0.4-0.1c0.3,0,0.5-0.1,0.8-0.2
	c0.5-0.1,1-0.3,1.5-0.5c2-0.9,3.7-2.5,4.8-4.4c0.5-1,0.9-2,1-3.1c0.1-0.6,0.1-1.1,0.1-1.7v-2.8v-4.2h-12.8V95h19.8h7.1v7.1v11.3v2.8
	c0,1.3-0.1,2.6-0.3,3.9c-0.4,2.6-1.3,5.2-2.6,7.5c-2.5,4.7-6.6,8.5-11.5,10.6c-1.2,0.5-2.5,1-3.8,1.3c-0.6,0.2-1.3,0.3-2,0.4
	c-0.3,0.1-0.7,0.1-1,0.1l-0.5,0.1l-0.6,0l-0.6,0l-0.3,0l-0.2,0l-0.9,0h-1.4h-2.8h-5.6h-1.4c-0.6,0-1.3,0-2-0.1
	c-1.3-0.1-2.6-0.3-3.9-0.6c-5.2-1.3-9.9-4.4-13.1-8.6c-3.3-4.2-5.1-9.6-5.1-14.8v-11.3V82.3v-2.8c0-1.2,0.1-2.6,0.3-3.9
	c0.4-2.6,1.3-5.2,2.5-7.6c2.5-4.7,6.6-8.5,11.5-10.7c1.2-0.5,2.5-1,3.8-1.3c0.6-0.2,1.3-0.3,2-0.4c0.3-0.1,0.7-0.1,1-0.1
	c0.3,0,0.7-0.1,1.1-0.1l0.6,0l0.5,0l0.7,0l1.6,0h2.8h5.6h1.4c0.6,0,1.3,0,2,0.1c1.3,0.1,2.6,0.3,3.9,0.6c5.2,1.3,9.9,4.3,13.2,8.5
	c3.3,4.2,5.1,9.5,5.1,14.8h-14.2c0-2.2-0.7-4.4-2.1-6.1c-1.4-1.7-3.3-3-5.4-3.5c-0.5-0.1-1.1-0.2-1.6-0.3c-0.3,0-0.5,0-0.9,0h-1.4
	h-5.6h-2.8l-1.2,0l-0.7,0c-0.1,0-0.2,0-0.2,0l-0.1,0c-0.1,0-0.2,0-0.3,0c-0.1,0-0.3,0-0.4,0.1c-0.3,0-0.5,0.1-0.8,0.2
	c-0.5,0.1-1,0.3-1.5,0.5c-2,0.9-3.7,2.5-4.7,4.4c-0.5,1-0.9,2-1,3.1c-0.1,0.6-0.1,1-0.1,1.7v2.8v22.6v11.3
	C106.3,118.5,107,120.6,108.4,122.3z" visibility="hidden">
	<animate attributeType="XML" attributeName="visibility" from="hidden" to="visible" dur="2s" repeatCount="indefinite"/>
</path>
<path d="M277.8,0H5.7C2.5,0,0,2.5,0,5.7v272.2c0,3.1,2.5,5.7,5.7,5.7h272.2c3.1,0,5.7-2.5,5.7-5.7V5.7C283.5,2.5,281,0,277.8,0z
	 M44.7,135.4l-10-10l24.9-23.3L34.7,78.7l10-10l31.8,33.4L44.7,135.4z M108.4,122.3c1.3,1.7,3.3,3,5.4,3.5c0.5,0.1,1.1,0.2,1.6,0.3
	c0.3,0,0.5,0,0.8,0h1.4h5.6h2.8h1.3l0.1,0l0.2,0l0.4,0l0.2,0l0.1,0l0.1,0l0.1,0l0.2,0c0.1,0,0.3,0,0.4-0.1c0.3,0,0.5-0.1,0.8-0.2
	c0.5-0.1,1-0.3,1.5-0.5c2-0.9,3.7-2.5,4.8-4.4c0.5-1,0.9-2,1-3.1c0.1-0.6,0.1-1.1,0.1-1.7v-2.8v-4.2h-12.8V95h19.8h7.1v7.1v11.3v2.8
	c0,1.3-0.1,2.6-0.3,3.9c-0.4,2.6-1.3,5.2-2.6,7.5c-2.5,4.7-6.6,8.5-11.5,10.6c-1.2,0.5-2.5,1-3.8,1.3c-0.6,0.2-1.3,0.3-2,0.4
	c-0.3,0.1-0.7,0.1-1,0.1l-0.5,0.1l-0.6,0l-0.6,0l-0.3,0l-0.2,0l-0.9,0h-1.4h-2.8h-5.6h-1.4c-0.6,0-1.3,0-2-0.1
	c-1.3-0.1-2.6-0.3-3.9-0.6c-5.2-1.3-9.9-4.4-13.1-8.6c-3.3-4.2-5.1-9.6-5.1-14.8v-11.3V82.3v-2.8c0-1.2,0.1-2.6,0.3-3.9
	c0.4-2.6,1.3-5.2,2.5-7.6c2.5-4.7,6.6-8.5,11.5-10.7c1.2-0.5,2.5-1,3.8-1.3c0.6-0.2,1.3-0.3,2-0.4c0.3-0.1,0.7-0.1,1-0.1
	c0.3,0,0.7-0.1,1.1-0.1l0.6,0l0.5,0l0.7,0l1.6,0h2.8h5.6h1.4c0.6,0,1.3,0,2,0.1c1.3,0.1,2.6,0.3,3.9,0.6c5.2,1.3,9.9,4.3,13.2,8.5
	c3.3,4.2,5.1,9.5,5.1,14.8h-14.2c0-2.2-0.7-4.4-2.1-6.1c-1.4-1.7-3.3-3-5.4-3.5c-0.5-0.1-1.1-0.2-1.6-0.3c-0.3,0-0.5,0-0.9,0h-1.4
	h-5.6h-2.8l-1.2,0l-0.7,0c-0.1,0-0.2,0-0.2,0l-0.1,0c-0.1,0-0.2,0-0.3,0c-0.1,0-0.3,0-0.4,0.1c-0.3,0-0.5,0.1-0.8,0.2
	c-0.5,0.1-1,0.3-1.5,0.5c-2,0.9-3.7,2.5-4.7,4.4c-0.5,1-0.9,2-1,3.1c-0.1,0.6-0.1,1-0.1,1.7v2.8v22.6v11.3
	C106.3,118.5,107,120.6,108.4,122.3z M221.3,149H167v-12.9h54.3V149z">
	<animate attributeType="XML" attributeName="visibility" from="visible" to="hidden" dur="2s" repeatCount="indefinite"/>
</path>
</svg>
