<?xml version="1.0" encoding="utf-8"?>
<svg version="1.1" id="Calque_1" xmlns="http://www.w3.org/2000/svg" xmlns:xlink="http://www.w3.org/1999/xlink" x="0px" y="0px"
	 viewBox="0 0 283.5 283.5" style="enable-background:new 0 0 283.5 283.5;" xml:space="preserve">
<style type="text/css">
	.st0{fill:#FFFFFF;}
</style>
<g>
	<path class="st0" d="M275.3,5.7c1.4,0,2.5,1.1,2.5,2.5v267.1c0,1.4-1.1,2.5-2.5,2.5H8.2c-1.4,0-2.5-1.1-2.5-2.5V8.2
		c0-1.4,1.1-2.5,2.5-2.5H275.3 M275.3,0H8.2C3.7,0,0,3.7,0,8.2v267.1c0,4.5,3.7,8.2,8.2,8.2h267.1c4.5,0,8.2-3.7,8.2-8.2V8.2
		C283.5,3.7,279.8,0,275.3,0L275.3,0z"/>
</g>
<path class="st0" d="M39.7,152.1l-16-16L52,107.7L23.6,79.4l16-16L76,99.7c2.1,2.1,3.3,5,3.3,8s-1.2,5.9-3.3,8L39.7,152.1z"/>
<path class="st0" d="M153.1,153.1h-45.4c-6.3,0-11.3-5.1-11.3-11.3v-68c0-6.3,5.1-11.3,11.3-11.3h56.7V85h-45.4v45.4h22.7v-22.7
	h22.7v34C164.4,148,159.3,153.1,153.1,153.1z"/>
<rect x="181.4" y="141.7" class="st0" width="68" height="22.7"/>
</svg>
