<?xml version="1.0" encoding="utf-8"?>
<svg version="1.1" id="Calque_1" xmlns="http://www.w3.org/2000/svg" xmlns:xlink="http://www.w3.org/1999/xlink" x="0px" y="0px"
	 viewBox="0 0 283.5 283.5" style="enable-background:new 0 0 283.5 283.5;" xml:space="preserve">
<style type="text/css">
	.st0{fill:#010202;}
</style>
<path class="st0" d="M275.3,0H8.2C3.7,0,0,3.7,0,8.2v267.1c0,4.5,3.7,8.2,8.2,8.2h267.1c4.5,0,8.2-3.7,8.2-8.2V8.2
	C283.5,3.7,279.8,0,275.3,0z M76,115.7l-36.4,36.4l-16-16L52,107.7L23.6,79.4l16-16L76,99.7c2.1,2.1,3.3,5,3.3,8
	S78.2,113.6,76,115.7z M164.4,85h-45.4v45.4h22.7v-22.7h22.7v34c0,6.3-5.1,11.3-11.3,11.3h-45.4c-6.3,0-11.3-5.1-11.3-11.3v-68
	c0-6.3,5.1-11.3,11.3-11.3h56.7V85z M249.4,170.1h-68v-17h68V170.1z"/>
</svg>
