<?xml version="1.0" encoding="utf-8"?>
<!-- Generator: Adobe Illustrator 20.1.0, SVG Export Plug-In . SVG Version: 6.00 Build 0)  -->
<svg version="1.1" id="Calque_2" xmlns="http://www.w3.org/2000/svg" xmlns:xlink="http://www.w3.org/1999/xlink" x="0px" y="0px"
	 viewBox="0 0 283.5 283.5" style="enable-background:new 0 0 283.5 283.5;" xml:space="preserve">
<style type="text/css">
	.st0{fill:#010202;}
</style>
<path class="st0" d="M277.8,0H5.7C2.5,0,0,2.5,0,5.7v272.2c0,3.1,2.5,5.7,5.7,5.7h272.2c3.1,0,5.7-2.5,5.7-5.7V5.7
	C283.5,2.5,281,0,277.8,0z M44.7,136.9l-10-10L58,103.5L34.7,80.2l10-10l33.4,33.4L44.7,136.9z M147.4,82.2h-39.7v42.5h22.7v-20.8
	h17v29.3c0,4.7-3.8,8.5-8.5,8.5H99.2c-4.7,0-8.5-3.8-8.5-8.5V73.7c0-4.7,3.8-8.5,8.5-8.5h48.2V82.2z" visibility="hidden">
	<animate attributeType="XML" attributeName="visibility" from="hidden" to="visible" dur="2s" repeatCount="indefinite"/>
</path>
<path class="st0" d="M277.8,0H5.7C2.5,0,0,2.5,0,5.7v272.2c0,3.1,2.5,5.7,5.7,5.7h272.2c3.1,0,5.7-2.5,5.7-5.7V5.7
	C283.5,2.5,281,0,277.8,0z M44.7,136.9l-10-10L58,103.5L34.7,80.2l10-10l33.4,33.4L44.7,136.9z M147.4,82.2h-39.7v42.5h22.7v-20.8
	h17v29.3c0,4.7-3.8,8.5-8.5,8.5H99.2c-4.7,0-8.5-3.8-8.5-8.5V73.7c0-4.7,3.8-8.5,8.5-8.5h48.2V82.2z M216.9,154.5H163v-14.2h53.9
	V154.5z">
	<animate attributeType="XML" attributeName="visibility" from="visible" to="hidden" dur="2s" repeatCount="indefinite"/>
</path>
</svg>
